<?xml version="1.0" encoding="UTF-8"?>
<!DOCTYPE svg PUBLIC "-//W3C//DTD SVG 1.1//EN" "http://www.w3.org/Graphics/SVG/1.1/DTD/svg11.dtd">
<svg xmlns="http://www.w3.org/2000/svg" version="1.1" width="512px" height="512px" style="shape-rendering:geometricPrecision; text-rendering:geometricPrecision; image-rendering:optimizeQuality; fill-rule:evenodd; clip-rule:evenodd" xmlns:xlink="http://www.w3.org/1999/xlink">
<g><path style="opacity:0.932" fill="#d5d4d0" d="M 4.5,86.5 C 171.833,86.5 339.167,86.5 506.5,86.5C 506.5,199.167 506.5,311.833 506.5,424.5C 339.167,424.5 171.833,424.5 4.5,424.5C 4.5,311.833 4.5,199.167 4.5,86.5 Z"/></g>
<g><path style="opacity:1" fill="#089d37" d="M 502.5,91.5 C 502.5,200.833 502.5,310.167 502.5,419.5C 338.167,419.5 173.833,419.5 9.5,419.5C 9.5,310.167 9.5,200.833 9.5,91.5C 173.833,91.5 338.167,91.5 502.5,91.5 Z"/></g>
<g><path style="opacity:1" fill="#fbde08" d="M 253.5,124.5 C 257.604,124.884 261.271,126.384 264.5,129C 327.167,169 389.833,209 452.5,249C 455.39,250.938 458.056,253.105 460.5,255.5C 392.713,300.234 324.38,344.234 255.5,387.5C 186.96,343.736 118.627,299.736 50.5,255.5C 118.025,211.574 185.692,167.907 253.5,124.5 Z"/></g>
<g><path style="opacity:1" fill="#092f67" d="M 336.5,266.5 C 291.207,230.185 239.54,214.851 181.5,220.5C 197.061,190.709 221.727,175.042 255.5,173.5C 291.338,175.158 316.838,192.158 332,224.5C 337.36,238.218 338.86,252.218 336.5,266.5 Z"/></g>
<g><path style="opacity:1" fill="#b6c1d2" d="M 280.5,222.5 C 281.922,222.709 283.255,223.209 284.5,224C 283.663,225.011 283.33,226.178 283.5,227.5C 282.167,227.5 280.833,227.5 279.5,227.5C 279.629,225.784 279.962,224.117 280.5,222.5 Z"/></g>
<g><path style="opacity:1" fill="#0a3068" d="M 333.5,279.5 C 325.089,307.078 307.089,325.245 279.5,334C 234.083,344.203 200.916,328.703 180,287.5C 172.911,270.148 171.745,252.482 176.5,234.5C 235.757,226.263 288.091,241.263 333.5,279.5 Z"/></g>
<g><path style="opacity:1" fill="#d2d9e4" d="M 186.5,237.5 C 187.534,238.687 188.867,239.52 190.5,240C 188.726,240.881 188.06,242.047 188.5,243.5C 187.268,242.855 185.935,242.689 184.5,243C 185.815,241.605 185.481,240.605 183.5,240C 185.119,239.764 186.119,238.931 186.5,237.5 Z"/></g>
<g><path style="opacity:1" fill="#ebf1e9" d="M 181.5,220.5 C 239.54,214.851 291.207,230.185 336.5,266.5C 336.26,271.12 335.26,275.453 333.5,279.5C 288.091,241.263 235.757,226.263 176.5,234.5C 177.647,229.561 179.313,224.895 181.5,220.5 Z"/></g>
<g><path style="opacity:1" fill="#31a84e" d="M 302.5,246.5 C 304.757,246.962 306.757,247.962 308.5,249.5C 308.167,249.833 307.833,250.167 307.5,250.5C 303.026,248.141 302.692,248.641 306.5,252C 301.016,250.897 300.516,251.731 305,254.5C 305.667,255.167 305.667,255.833 305,256.5C 302.863,255.521 301.029,254.188 299.5,252.5C 300.513,250.473 301.513,248.473 302.5,246.5 Z"/></g>
<g><path style="opacity:1" fill="#3baa53" d="M 288.5,242.5 C 288.824,247.962 286.991,248.629 283,244.5C 281.5,239.333 283.333,237.5 288.5,239C 289.791,240.292 289.791,241.458 288.5,242.5 Z"/></g>
<g><path style="opacity:1" fill="#47af5c" d="M 293.5,241.5 C 300.22,242.961 301.22,246.294 296.5,251.5C 295.571,250.311 295.238,248.978 295.5,247.5C 293.857,247.48 292.524,248.147 291.5,249.5C 291.167,249.167 290.833,248.833 290.5,248.5C 291.788,246.261 292.788,243.928 293.5,241.5 Z"/></g>
<g><path style="opacity:1" fill="#e0f2e5" d="M 288.5,242.5 C 287.265,242.721 286.265,243.388 285.5,244.5C 282.807,242.872 282.974,241.538 286,240.5C 287.301,240.639 288.134,241.305 288.5,242.5 Z"/></g>
<g><path style="opacity:1" fill="#39aa52" d="M 274.5,234.5 C 280.488,234.664 281.821,237.164 278.5,242C 276.888,242.72 275.388,242.554 274,241.5C 273.297,239.071 273.463,236.738 274.5,234.5 Z"/></g>
<g><path style="opacity:1" fill="#edf8f0" d="M 275.5,236.5 C 276.5,236.5 277.5,236.5 278.5,236.5C 278.426,240.541 277.093,241.208 274.5,238.5C 274.863,237.817 275.196,237.15 275.5,236.5 Z"/></g>
<g><path style="opacity:1" fill="#46ae5a" d="M 263.5,230.5 C 270.824,230.648 272.324,233.648 268,239.5C 267.517,238.552 267.351,237.552 267.5,236.5C 265.549,236.227 264.049,236.893 263,238.5C 262.57,235.808 262.737,233.141 263.5,230.5 Z"/></g>
<g><path style="opacity:1" fill="#4cb160" d="M 253.5,227.5 C 255.564,227.687 257.564,228.187 259.5,229C 260.517,230.049 260.684,231.216 260,232.5C 257.633,233.047 255.467,234.047 253.5,235.5C 252.795,232.911 252.795,230.244 253.5,227.5 Z"/></g>
<g><path style="opacity:1" fill="#54b569" d="M 211.5,221.5 C 213.924,221.192 216.257,221.526 218.5,222.5C 216.833,223.167 215.167,223.833 213.5,224.5C 214.729,225.281 216.062,225.781 217.5,226C 216.062,226.219 214.729,226.719 213.5,227.5C 215.5,228.167 217.5,228.833 219.5,229.5C 216.914,230.48 214.247,230.813 211.5,230.5C 211.5,227.5 211.5,224.5 211.5,221.5 Z"/></g>
<g><path style="opacity:1" fill="#42ad59" d="M 201.5,222.5 C 203.527,222.338 205.527,222.505 207.5,223C 210.167,225.333 210.167,227.667 207.5,230C 205.527,230.495 203.527,230.662 201.5,230.5C 201.5,227.833 201.5,225.167 201.5,222.5 Z"/></g>
<g><path style="opacity:1" fill="#3eab55" d="M 238.5,225.5 C 245.612,225.05 246.279,226.716 240.5,230.5C 241.729,231.281 243.062,231.781 244.5,232C 242.527,232.495 240.527,232.662 238.5,232.5C 238.5,230.167 238.5,227.833 238.5,225.5 Z"/></g>
<g><path style="opacity:1" fill="#3eac56" d="M 191.5,222.5 C 198.065,221.422 200.232,224.089 198,230.5C 197.411,228.137 195.911,227.137 193.5,227.5C 193.719,228.675 193.386,229.675 192.5,230.5C 191.52,227.914 191.187,225.247 191.5,222.5 Z"/></g>
<g><path style="opacity:1" fill="#43ad59" d="M 183.5,223.5 C 187.06,222.891 189.06,224.391 189.5,228C 187.687,231.911 185.187,232.411 182,229.5C 181.252,227.16 181.752,225.16 183.5,223.5 Z"/></g>
<g><path style="opacity:1" fill="#ecf7ef" d="M 184.5,225.5 C 185.995,225.415 186.995,226.081 187.5,227.5C 186.68,229.111 185.346,229.778 183.5,229.5C 183.433,228.041 183.766,226.708 184.5,225.5 Z"/></g>
<g><path style="opacity:1" fill="#f9fcfa" d="M 203.5,224.5 C 204.833,224.5 206.167,224.5 207.5,224.5C 207.833,227.5 206.5,228.833 203.5,228.5C 203.5,227.167 203.5,225.833 203.5,224.5 Z"/></g>
<g><path style="opacity:1" fill="#32a74c" d="M 222.5,222.5 C 224.776,222.756 225.943,224.09 226,226.5C 226.368,225.09 227.201,224.09 228.5,223.5C 229.833,226.167 229.833,228.833 228.5,231.5C 227.749,230.624 227.249,229.624 227,228.5C 225.582,231.001 224.582,230.668 224,227.5C 223.667,228.5 223.333,229.5 223,230.5C 222.503,227.854 222.336,225.187 222.5,222.5 Z"/></g>
<g><path style="opacity:1" fill="#bfc9d8" d="M 277.5,252.5 C 281.063,254.124 280.73,255.457 276.5,256.5C 276.433,255.041 276.766,253.708 277.5,252.5 Z"/></g>
<g><path style="opacity:1" fill="#3dab55" d="M 310.5,252.5 C 312.722,252.178 314.556,252.845 316,254.5C 315.293,256.311 314.793,258.311 314.5,260.5C 310.491,260.986 308.658,259.32 309,255.5C 309.72,257.255 310.887,258.089 312.5,258C 311.139,256.416 310.472,254.582 310.5,252.5 Z"/></g>
<g><path style="opacity:1" fill="#46ae5a" d="M 319.5,257.5 C 322.977,257.612 324.477,259.279 324,262.5C 323.167,261.5 322.333,260.5 321.5,259.5C 321.167,259.833 320.833,260.167 320.5,260.5C 322.086,262.173 322.753,264.173 322.5,266.5C 320.418,266.528 318.584,265.861 317,264.5C 317.31,262.078 318.143,259.745 319.5,257.5 Z"/></g>
<g><path style="opacity:1" fill="#c3ccda" d="M 222.5,259.5 C 225.824,260.11 226.324,261.777 224,264.5C 220.389,263.349 219.889,261.682 222.5,259.5 Z"/></g>
<g><path style="opacity:1" fill="#38a951" d="M 326.5,264.5 C 332.158,263.679 333.825,265.846 331.5,271C 325.731,272.178 324.064,270.011 326.5,264.5 Z"/></g>
<g><path style="opacity:1" fill="#a6b3c8" d="M 255.5,263.5 C 258.824,264.11 259.324,265.777 257,268.5C 256.259,267.359 255.425,267.359 254.5,268.5C 253.738,267.372 253.071,266.205 252.5,265C 253.737,264.768 254.737,264.268 255.5,263.5 Z"/></g>
<g><path style="opacity:1" fill="#f3faf5" d="M 327.5,266.5 C 328.5,266.5 329.5,266.5 330.5,266.5C 330.778,268.346 330.111,269.68 328.5,270.5C 327.571,269.311 327.238,267.978 327.5,266.5 Z"/></g>
<g><path style="opacity:1" fill="#d0d7e2" d="M 246.5,271.5 C 249.674,271.952 250.007,272.952 247.5,274.5C 245.481,273.867 245.147,272.867 246.5,271.5 Z"/></g>
<g><path style="opacity:1" fill="#d3dae4" d="M 193.5,272.5 C 196.139,273.706 196.972,275.706 196,278.5C 194.095,277.842 192.595,276.675 191.5,275C 192.756,274.583 193.423,273.75 193.5,272.5 Z"/></g>
<g><path style="opacity:1" fill="#dee3eb" d="M 264.5,271.5 C 268.018,272.966 268.185,274.633 265,276.5C 263.831,275.991 262.998,275.158 262.5,274C 263.756,273.583 264.423,272.75 264.5,271.5 Z"/></g>
<g><path style="opacity:1" fill="#ebeef2" d="M 309.5,281.5 C 313.018,282.966 313.185,284.633 310,286.5C 308.831,285.991 307.998,285.158 307.5,284C 308.756,283.583 309.423,282.75 309.5,281.5 Z"/></g>
<g><path style="opacity:1" fill="#c0cad9" d="M 185.5,280.5 C 188.824,281.11 189.324,282.777 187,285.5C 183.837,283.989 183.337,282.322 185.5,280.5 Z"/></g>
<g><path style="opacity:1" fill="#ccd4e0" d="M 322.5,283.5 C 326.229,284.713 326.062,286.046 322,287.5C 321.421,286.072 321.588,284.738 322.5,283.5 Z"/></g>
<g><path style="opacity:1" fill="#bcc6d6" d="M 212.5,282.5 C 216.249,283.277 216.416,284.61 213,286.5C 210.264,285.067 210.098,283.734 212.5,282.5 Z"/></g>
<g><path style="opacity:1" fill="#d5dbe5" d="M 253.5,289.5 C 254.534,290.687 255.867,291.52 257.5,292C 256.929,293.205 256.262,294.372 255.5,295.5C 254.575,294.359 253.741,294.359 253,295.5C 252.682,293.939 251.849,292.772 250.5,292C 252.119,291.764 253.119,290.931 253.5,289.5 Z"/></g>
<g><path style="opacity:1" fill="#e1e6ed" d="M 314.5,289.5 C 318.249,290.277 318.416,291.61 315,293.5C 312.264,292.067 312.098,290.734 314.5,289.5 Z"/></g>
<g><path style="opacity:1" fill="#d3d9e4" d="M 222.5,298.5 C 223.309,299.469 224.309,300.302 225.5,301C 224.809,302.067 224.309,303.234 224,304.5C 223.259,303.359 222.425,303.359 221.5,304.5C 220.738,303.372 220.071,302.205 219.5,301C 220.942,300.623 221.942,299.79 222.5,298.5 Z"/></g>
<g><path style="opacity:1" fill="#bbc5d5" d="M 271.5,299.5 C 275.249,300.277 275.416,301.61 272,303.5C 269.264,302.067 269.098,300.734 271.5,299.5 Z"/></g>
<g><path style="opacity:1" fill="#bfc9d8" d="M 311.5,297.5 C 314.824,298.11 315.324,299.777 313,302.5C 309.837,300.989 309.337,299.322 311.5,297.5 Z"/></g>
<g><path style="opacity:1" fill="#98a7bf" d="M 285.5,300.5 C 290.515,300.863 290.682,302.197 286,304.5C 285.51,303.207 285.343,301.873 285.5,300.5 Z"/></g>
<g><path style="opacity:1" fill="#e3e7ee" d="M 295.5,300.5 C 298.674,300.952 299.007,301.952 296.5,303.5C 294.481,302.867 294.147,301.867 295.5,300.5 Z"/></g>
<g><path style="opacity:1" fill="#abb7cb" d="M 304.5,301.5 C 308.249,302.277 308.416,303.61 305,305.5C 302.264,304.067 302.098,302.734 304.5,301.5 Z"/></g>
<g><path style="opacity:1" fill="#d4dae4" d="M 296.5,307.5 C 297.931,308.78 298.598,310.447 298.5,312.5C 294.649,311.821 293.982,310.154 296.5,307.5 Z"/></g>
<g><path style="opacity:1" fill="#a6b3c8" d="M 278.5,308.5 C 281.824,309.11 282.324,310.777 280,313.5C 279.259,312.359 278.425,312.359 277.5,313.5C 276.738,312.372 276.071,311.205 275.5,310C 276.737,309.768 277.737,309.268 278.5,308.5 Z"/></g>
<g><path style="opacity:1" fill="#bbc6d6" d="M 296.5,316.5 C 300.249,317.277 300.416,318.61 297,320.5C 294.264,319.067 294.098,317.734 296.5,316.5 Z"/></g>
<g><path style="opacity:1" fill="#67b67f" d="M 502.5,91.5 C 338.167,91.5 173.833,91.5 9.5,91.5C 9.5,200.833 9.5,310.167 9.5,419.5C 173.833,419.5 338.167,419.5 502.5,419.5C 338.001,420.5 173.334,420.833 8.5,420.5C 8.5,310.5 8.5,200.5 8.5,90.5C 173.334,90.167 338.001,90.5003 502.5,91.5 Z"/></g>
</svg>
