<?xml version="1.0" encoding="UTF-8"?>
<!DOCTYPE svg PUBLIC "-//W3C//DTD SVG 1.1//EN" "http://www.w3.org/Graphics/SVG/1.1/DTD/svg11.dtd">
<svg xmlns="http://www.w3.org/2000/svg" version="1.1" width="512px" height="512px" style="shape-rendering:geometricPrecision; text-rendering:geometricPrecision; image-rendering:optimizeQuality; fill-rule:evenodd; clip-rule:evenodd" xmlns:xlink="http://www.w3.org/1999/xlink">
<g><path style="opacity:0.996" fill="#c8414b" d="M 511.5,92.5 C 511.5,114.5 511.5,136.5 511.5,158.5C 340.833,158.5 170.167,158.5 -0.5,158.5C -0.5,136.5 -0.5,114.5 -0.5,92.5C 0.646381,90.525 2.31305,89.025 4.5,88C 171.833,87.3333 339.167,87.3333 506.5,88C 508.687,89.025 510.354,90.525 511.5,92.5 Z"/></g>
<g><path style="opacity:1" fill="#fed150" d="M -0.5,158.5 C 170.167,158.5 340.833,158.5 511.5,158.5C 511.5,223.167 511.5,287.833 511.5,352.5C 340.833,352.5 170.167,352.5 -0.5,352.5C -0.5,287.833 -0.5,223.167 -0.5,158.5 Z"/></g>
<g><path style="opacity:1" fill="#f9b445" d="M 153.5,193.5 C 150.833,193.5 148.167,193.5 145.5,193.5C 145.5,189.5 145.5,185.5 145.5,181.5C 145.5,179.833 145.5,178.167 145.5,176.5C 148.167,176.5 150.833,176.5 153.5,176.5C 153.5,182.167 153.5,187.833 153.5,193.5 Z"/></g>
<g><path style="opacity:1" fill="#f5f2ed" d="M 145.5,181.5 C 145.5,185.5 145.5,189.5 145.5,193.5C 145.167,193.5 144.833,193.5 144.5,193.5C 143.018,189.171 140.518,188.504 137,191.5C 136.51,192.793 136.343,194.127 136.5,195.5C 133.234,197.048 129.901,198.715 126.5,200.5C 124.989,198.559 122.989,198.059 120.5,199C 118.316,200.898 117.983,203.064 119.5,205.5C 117.42,207.573 115.754,209.907 114.5,212.5C 107.007,203.628 108.341,196.128 118.5,190C 121.882,189.824 125.215,189.324 128.5,188.5C 132.216,181.476 137.883,179.143 145.5,181.5 Z"/></g>
<g><path style="opacity:1" fill="#f5f2ef" d="M 184.5,212.5 C 183.246,209.907 181.58,207.573 179.5,205.5C 181.238,200.067 179.238,197.901 173.5,199C 172.944,199.383 172.611,199.883 172.5,200.5C 169.101,198.801 165.768,197.134 162.5,195.5C 162.631,190.292 160.298,188.625 155.5,190.5C 154.513,187.232 154.18,183.898 154.5,180.5C 161.747,179.57 167.081,182.236 170.5,188.5C 180.908,187.936 187.242,192.602 189.5,202.5C 189.339,206.688 187.672,210.022 184.5,212.5 Z"/></g>
<g><path style="opacity:1" fill="#fdcf52" d="M 144.5,193.5 C 142.039,194.531 139.373,195.198 136.5,195.5C 136.343,194.127 136.51,192.793 137,191.5C 140.518,188.504 143.018,189.171 144.5,193.5 Z"/></g>
<g><path style="opacity:1" fill="#ca464b" d="M 144.5,193.5 C 144.833,193.5 145.167,193.5 145.5,193.5C 148.167,193.5 150.833,193.5 153.5,193.5C 156.37,194.634 159.37,195.3 162.5,195.5C 165.768,197.134 169.101,198.801 172.5,200.5C 174.657,202.412 176.991,204.079 179.5,205.5C 181.58,207.573 183.246,209.907 184.5,212.5C 181.5,214.833 178.833,217.5 176.5,220.5C 158.833,220.5 141.167,220.5 123.5,220.5C 120.5,217.833 117.5,215.167 114.5,212.5C 115.754,209.907 117.42,207.573 119.5,205.5C 122.112,204.221 124.445,202.555 126.5,200.5C 129.901,198.715 133.234,197.048 136.5,195.5C 139.373,195.198 142.039,194.531 144.5,193.5 Z"/></g>
<g><path style="opacity:1" fill="#fdd059" d="M 126.5,200.5 C 124.445,202.555 122.112,204.221 119.5,205.5C 117.983,203.064 118.316,200.898 120.5,199C 122.989,198.059 124.989,198.559 126.5,200.5 Z"/></g>
<g><path style="opacity:1" fill="#fdd056" d="M 179.5,205.5 C 176.991,204.079 174.657,202.412 172.5,200.5C 172.611,199.883 172.944,199.383 173.5,199C 179.238,197.901 181.238,200.067 179.5,205.5 Z"/></g>
<g><path style="opacity:1" fill="#fcca4f" d="M 129.5,207.5 C 136.004,207.138 137.671,209.638 134.5,215C 127.745,215.756 126.078,213.256 129.5,207.5 Z"/></g>
<g><path style="opacity:1" fill="#fdcc4f" d="M 146.5,207.5 C 152.885,206.214 154.885,208.547 152.5,214.5C 146.296,215.958 144.296,213.625 146.5,207.5 Z"/></g>
<g><path style="opacity:1" fill="#fdcd4f" d="M 164.5,207.5 C 171.004,207.138 172.671,209.638 169.5,215C 163.593,215.746 161.927,213.246 164.5,207.5 Z"/></g>
<g><path style="opacity:1" fill="#cb4b4b" d="M 89.5,229.5 C 85.5,229.5 81.5,229.5 77.5,229.5C 77.7678,227.901 77.4345,226.568 76.5,225.5C 74.8185,216.695 78.4852,213.528 87.5,216C 88.4162,216.374 89.2496,216.874 90,217.5C 90.6067,221.537 90.44,225.537 89.5,229.5 Z"/></g>
<g><path style="opacity:1" fill="#cb494b" d="M 222.5,226.5 C 221.596,227.209 221.263,228.209 221.5,229.5C 217.5,229.5 213.5,229.5 209.5,229.5C 206.037,217.798 210.037,213.631 221.5,217C 222.894,217.956 223.561,219.289 223.5,221C 223.057,222.825 222.723,224.658 222.5,226.5 Z"/></g>
<g><path style="opacity:1" fill="#f9b54c" d="M 123.5,220.5 C 141.167,220.5 158.833,220.5 176.5,220.5C 176.5,223.167 176.5,225.833 176.5,228.5C 179.713,228.19 182.713,228.523 185.5,229.5C 173.5,229.5 161.5,229.5 149.5,229.5C 137.167,229.5 124.833,229.5 112.5,229.5C 115.962,228.518 119.629,228.185 123.5,228.5C 123.5,225.833 123.5,223.167 123.5,220.5 Z"/></g>
<g><path style="opacity:1" fill="#f9b346" d="M 76.5,225.5 C 77.4345,226.568 77.7678,227.901 77.5,229.5C 81.5,229.5 85.5,229.5 89.5,229.5C 91.8333,229.5 94.1667,229.5 96.5,229.5C 96.5,232.167 96.5,234.833 96.5,237.5C 95.1667,237.5 93.8333,237.5 92.5,237.5C 86.5,237.5 80.5,237.5 74.5,237.5C 73.1667,237.5 71.8333,237.5 70.5,237.5C 70.5,234.833 70.5,232.167 70.5,229.5C 72.5,229.5 74.5,229.5 76.5,229.5C 76.5,228.167 76.5,226.833 76.5,225.5 Z"/></g>
<g><path style="opacity:1" fill="#c8424b" d="M 112.5,229.5 C 124.833,229.5 137.167,229.5 149.5,229.5C 149.5,239.833 149.5,250.167 149.5,260.5C 145.997,260.129 142.997,261.129 140.5,263.5C 140.5,260.833 140.5,258.167 140.5,255.5C 139.167,255.5 137.833,255.5 136.5,255.5C 136.5,252.5 136.5,249.5 136.5,246.5C 137.833,246.5 139.167,246.5 140.5,246.5C 140.5,243.5 140.5,240.5 140.5,237.5C 131.833,237.5 123.167,237.5 114.5,237.5C 114.5,240.5 114.5,243.5 114.5,246.5C 115.833,246.5 117.167,246.5 118.5,246.5C 118.5,249.5 118.5,252.5 118.5,255.5C 117.167,255.5 115.833,255.5 114.5,255.5C 114.5,258.5 114.5,261.5 114.5,264.5C 122.833,264.5 131.167,264.5 139.5,264.5C 137.394,266.719 136.394,269.385 136.5,272.5C 126.167,272.5 115.833,272.5 105.5,272.5C 105.5,269.833 105.5,267.167 105.5,264.5C 101.167,264.5 96.8333,264.5 92.5,264.5C 86.5,264.5 80.5,264.5 74.5,264.5C 73.1667,264.5 71.8333,264.5 70.5,264.5C 70.5,261.5 70.5,258.5 70.5,255.5C 71.8333,255.5 73.1667,255.5 74.5,255.5C 80.1667,255.5 85.8333,255.5 91.5,255.5C 91.8333,255.5 92.1667,255.5 92.5,255.5C 96.8333,255.5 101.167,255.5 105.5,255.5C 105.334,248.492 105.5,241.492 106,234.5C 107.159,231.507 109.325,229.84 112.5,229.5 Z"/></g>
<g><path style="opacity:1" fill="#f4f2f2" d="M 149.5,229.5 C 161.5,229.5 173.5,229.5 185.5,229.5C 189.09,229.544 191.59,231.211 193,234.5C 193.5,241.492 193.666,248.492 193.5,255.5C 193.5,258.5 193.5,261.5 193.5,264.5C 193.5,267.5 193.5,270.5 193.5,273.5C 183.167,273.5 172.833,273.5 162.5,273.5C 162.167,265.167 157.833,260.833 149.5,260.5C 149.5,250.167 149.5,239.833 149.5,229.5 Z"/></g>
<g><path style="opacity:1" fill="#f9b346" d="M 222.5,226.5 C 222.5,227.5 222.5,228.5 222.5,229.5C 224.5,229.5 226.5,229.5 228.5,229.5C 228.5,232.167 228.5,234.833 228.5,237.5C 227.167,237.5 225.833,237.5 224.5,237.5C 218.5,237.5 212.5,237.5 206.5,237.5C 205.167,237.5 203.833,237.5 202.5,237.5C 202.5,234.833 202.5,232.167 202.5,229.5C 204.833,229.5 207.167,229.5 209.5,229.5C 213.5,229.5 217.5,229.5 221.5,229.5C 221.263,228.209 221.596,227.209 222.5,226.5 Z"/></g>
<g><path style="opacity:1" fill="#f5f4f4" d="M 74.5,238.5 C 80.1667,238.5 85.8333,238.5 91.5,238.5C 91.5,244.167 91.5,249.833 91.5,255.5C 85.8333,255.5 80.1667,255.5 74.5,255.5C 74.5,249.833 74.5,244.167 74.5,238.5 Z"/></g>
<g><path style="opacity:1" fill="#f6ddb1" d="M 74.5,238.5 C 74.5,238.167 74.5,237.833 74.5,237.5C 80.5,237.5 86.5,237.5 92.5,237.5C 92.5,243.5 92.5,249.5 92.5,255.5C 92.1667,255.5 91.8333,255.5 91.5,255.5C 91.5,249.833 91.5,244.167 91.5,238.5C 85.8333,238.5 80.1667,238.5 74.5,238.5 Z"/></g>
<g><path style="opacity:1" fill="#f9b145" d="M 140.5,263.5 C 140.5,264.167 140.167,264.5 139.5,264.5C 131.167,264.5 122.833,264.5 114.5,264.5C 114.5,261.5 114.5,258.5 114.5,255.5C 115.833,255.5 117.167,255.5 118.5,255.5C 118.5,252.5 118.5,249.5 118.5,246.5C 117.167,246.5 115.833,246.5 114.5,246.5C 114.5,243.5 114.5,240.5 114.5,237.5C 123.167,237.5 131.833,237.5 140.5,237.5C 140.5,240.5 140.5,243.5 140.5,246.5C 139.167,246.5 137.833,246.5 136.5,246.5C 136.5,249.5 136.5,252.5 136.5,255.5C 137.833,255.5 139.167,255.5 140.5,255.5C 140.5,258.167 140.5,260.833 140.5,263.5 Z"/></g>
<g><path style="opacity:1" fill="#fea2d2" d="M 167.5,238.5 C 172.946,237.339 177.113,239.006 180,243.5C 180.667,248.5 180.667,253.5 180,258.5C 176.272,264.629 171.439,265.796 165.5,262C 162.664,256.507 161.831,250.673 163,244.5C 164.332,242.34 165.832,240.34 167.5,238.5 Z"/></g>
<g><path style="opacity:1" fill="#f6d9a1" d="M 206.5,237.5 C 212.5,237.5 218.5,237.5 224.5,237.5C 224.5,237.833 224.5,238.167 224.5,238.5C 218.833,238.5 213.167,238.5 207.5,238.5C 207.5,244.167 207.5,249.833 207.5,255.5C 207.167,255.5 206.833,255.5 206.5,255.5C 206.5,249.5 206.5,243.5 206.5,237.5 Z"/></g>
<g><path style="opacity:1" fill="#f4f5f4" d="M 224.5,238.5 C 224.5,244.167 224.5,249.833 224.5,255.5C 218.833,255.5 213.167,255.5 207.5,255.5C 207.5,249.833 207.5,244.167 207.5,238.5C 213.167,238.5 218.833,238.5 224.5,238.5 Z"/></g>
<g><path style="opacity:1" fill="#c9464d" d="M 193.5,255.5 C 197.833,255.5 202.167,255.5 206.5,255.5C 206.833,255.5 207.167,255.5 207.5,255.5C 213.167,255.5 218.833,255.5 224.5,255.5C 226.167,255.5 227.833,255.5 229.5,255.5C 229.5,258.5 229.5,261.5 229.5,264.5C 227.833,264.5 226.167,264.5 224.5,264.5C 218.5,264.5 212.5,264.5 206.5,264.5C 202.167,264.5 197.833,264.5 193.5,264.5C 193.5,261.5 193.5,258.5 193.5,255.5 Z"/></g>
<g><path style="opacity:1" fill="#5364a8" d="M 149.5,260.5 C 157.833,260.833 162.167,265.167 162.5,273.5C 162.416,276.327 161.75,278.994 160.5,281.5C 159.833,281.5 159.5,281.833 159.5,282.5C 158.833,282.5 158.5,282.833 158.5,283.5C 155.817,285.336 152.817,286.336 149.5,286.5C 146.183,286.336 143.183,285.336 140.5,283.5C 138.195,280.593 136.862,277.259 136.5,273.5C 136.5,273.167 136.5,272.833 136.5,272.5C 136.394,269.385 137.394,266.719 139.5,264.5C 140.167,264.5 140.5,264.167 140.5,263.5C 142.997,261.129 145.997,260.129 149.5,260.5 Z"/></g>
<g><path style="opacity:1" fill="#f5f3f1" d="M 74.5,264.5 C 80.5,264.5 86.5,264.5 92.5,264.5C 92.5,267.833 92.5,271.167 92.5,274.5C 86.4214,276.304 80.4214,278.304 74.5,280.5C 74.5,275.167 74.5,269.833 74.5,264.5 Z"/></g>
<g><path style="opacity:1" fill="#f4f1ef" d="M 206.5,264.5 C 212.5,264.5 218.5,264.5 224.5,264.5C 224.5,269.833 224.5,275.167 224.5,280.5C 218.421,278.696 212.421,276.696 206.5,274.5C 206.5,271.167 206.5,267.833 206.5,264.5 Z"/></g>
<g><path style="opacity:1" fill="#c9474e" d="M 92.5,283.5 C 86.4331,285.3 80.4331,287.3 74.5,289.5C 73.4168,289.539 72.4168,289.873 71.5,290.5C 70.1667,287.5 70.1667,284.5 71.5,281.5C 72.4168,280.873 73.4168,280.539 74.5,280.5C 80.4214,278.304 86.4214,276.304 92.5,274.5C 93.7079,273.766 95.0413,273.433 96.5,273.5C 96.5,276.5 96.5,279.5 96.5,282.5C 95.0413,282.433 93.7079,282.766 92.5,283.5 Z"/></g>
<g><path style="opacity:1" fill="#f8b146" d="M 105.5,273.5 C 108.5,273.5 111.5,273.5 114.5,273.5C 114.5,286.5 114.5,299.5 114.5,312.5C 113.5,311.833 112.5,311.167 111.5,310.5C 109.425,307.354 107.592,304.021 106,300.5C 105.5,291.506 105.334,282.506 105.5,273.5 Z"/></g>
<g><path style="opacity:1" fill="#c8414b" d="M 114.5,273.5 C 117.167,273.5 119.833,273.5 122.5,273.5C 122.5,287.833 122.5,302.167 122.5,316.5C 119.246,316.206 116.579,314.873 114.5,312.5C 114.5,299.5 114.5,286.5 114.5,273.5 Z"/></g>
<g><path style="opacity:1" fill="#dc734f" d="M 105.5,273.5 C 105.5,273.167 105.5,272.833 105.5,272.5C 115.833,272.5 126.167,272.5 136.5,272.5C 136.5,272.833 136.5,273.167 136.5,273.5C 135.167,273.5 133.833,273.5 132.5,273.5C 132.5,287.833 132.5,302.167 132.5,316.5C 131.504,302.343 131.171,288.01 131.5,273.5C 128.833,273.5 126.167,273.5 123.5,273.5C 123.829,288.01 123.496,302.343 122.5,316.5C 122.5,302.167 122.5,287.833 122.5,273.5C 119.833,273.5 117.167,273.5 114.5,273.5C 111.5,273.5 108.5,273.5 105.5,273.5 Z"/></g>
<g><path style="opacity:1" fill="#fab448" d="M 132.5,316.5 C 129.167,317.833 125.833,317.833 122.5,316.5C 123.496,302.343 123.829,288.01 123.5,273.5C 126.167,273.5 128.833,273.5 131.5,273.5C 131.171,288.01 131.504,302.343 132.5,316.5 Z"/></g>
<g><path style="opacity:1" fill="#c7414b" d="M 136.5,273.5 C 136.862,277.259 138.195,280.593 140.5,283.5C 140.5,293.167 140.5,302.833 140.5,312.5C 138.388,314.771 135.721,316.104 132.5,316.5C 132.5,302.167 132.5,287.833 132.5,273.5C 133.833,273.5 135.167,273.5 136.5,273.5 Z"/></g>
<g><path style="opacity:1" fill="#c8444d" d="M 162.5,273.5 C 172.833,273.5 183.167,273.5 193.5,273.5C 193.666,282.506 193.5,291.506 193,300.5C 191.828,304.858 189.661,308.525 186.5,311.5C 169.513,321.949 157.18,317.949 149.5,299.5C 149.5,295.167 149.5,290.833 149.5,286.5C 152.817,286.336 155.817,285.336 158.5,283.5C 158.334,288.511 158.501,293.511 159,298.5C 164.451,309.76 172.118,311.427 182,303.5C 183.411,301.35 184.245,299.016 184.5,296.5C 185.487,291.695 185.821,286.695 185.5,281.5C 177.167,281.5 168.833,281.5 160.5,281.5C 161.75,278.994 162.416,276.327 162.5,273.5 Z"/></g>
<g><path style="opacity:1" fill="#ca474d" d="M 206.5,274.5 C 212.421,276.696 218.421,278.696 224.5,280.5C 226.042,281.301 227.708,281.634 229.5,281.5C 229.5,284.5 229.5,287.5 229.5,290.5C 227.784,290.371 226.117,290.038 224.5,289.5C 218.579,287.304 212.579,285.304 206.5,283.5C 205.292,282.766 203.959,282.433 202.5,282.5C 202.183,279.428 202.516,276.428 203.5,273.5C 204.417,274.127 205.417,274.461 206.5,274.5 Z"/></g>
<g><path style="opacity:1" fill="#f9b246" d="M 159.5,282.5 C 167.833,282.5 176.167,282.5 184.5,282.5C 184.5,287.167 184.5,291.833 184.5,296.5C 184.245,299.016 183.411,301.35 182,303.5C 172.118,311.427 164.451,309.76 159,298.5C 158.501,293.511 158.334,288.511 158.5,283.5C 158.5,282.833 158.833,282.5 159.5,282.5 Z"/></g>
<g><path style="opacity:1" fill="#dd7248" d="M 159.5,282.5 C 159.5,281.833 159.833,281.5 160.5,281.5C 168.833,281.5 177.167,281.5 185.5,281.5C 185.821,286.695 185.487,291.695 184.5,296.5C 184.5,291.833 184.5,287.167 184.5,282.5C 176.167,282.5 167.833,282.5 159.5,282.5 Z"/></g>
<g><path style="opacity:1" fill="#f4f3f1" d="M 92.5,283.5 C 92.5,291.833 92.5,300.167 92.5,308.5C 86.5,308.5 80.5,308.5 74.5,308.5C 74.5,302.167 74.5,295.833 74.5,289.5C 80.4331,287.3 86.4331,285.3 92.5,283.5 Z"/></g>
<g><path style="opacity:1" fill="#f8b048" d="M 140.5,283.5 C 143.183,285.336 146.183,286.336 149.5,286.5C 149.5,290.833 149.5,295.167 149.5,299.5C 148.225,305.057 145.225,309.391 140.5,312.5C 140.5,302.833 140.5,293.167 140.5,283.5 Z"/></g>
<g><path style="opacity:1" fill="#f5f3ef" d="M 206.5,283.5 C 212.579,285.304 218.579,287.304 224.5,289.5C 224.5,295.833 224.5,302.167 224.5,308.5C 218.5,308.5 212.5,308.5 206.5,308.5C 206.5,300.167 206.5,291.833 206.5,283.5 Z"/></g>
<g><path style="opacity:1" fill="#cb494a" d="M 167.5,290.5 C 170.5,290.5 173.5,290.5 176.5,290.5C 177.584,295.145 175.917,298.145 171.5,299.5C 169.971,299.471 168.804,298.804 168,297.5C 167.503,295.19 167.337,292.857 167.5,290.5 Z"/></g>
<g><path style="opacity:1" fill="#f5f2ef" d="M 149.5,299.5 C 157.18,317.949 169.513,321.949 186.5,311.5C 186.489,313.017 185.823,314.184 184.5,315C 169.992,324.956 153.992,328.29 136.5,325C 128.412,323.288 121.078,319.955 114.5,315C 112.859,313.871 111.859,312.371 111.5,310.5C 112.5,311.167 113.5,311.833 114.5,312.5C 116.579,314.873 119.246,316.206 122.5,316.5C 125.833,317.833 129.167,317.833 132.5,316.5C 135.721,316.104 138.388,314.771 140.5,312.5C 145.225,309.391 148.225,305.057 149.5,299.5 Z"/></g>
<g><path style="opacity:1" fill="#f5b249" d="M 74.5,308.5 C 80.5,308.5 86.5,308.5 92.5,308.5C 93.8333,308.5 95.1667,308.5 96.5,308.5C 96.5,311.167 96.5,313.833 96.5,316.5C 98.4147,316.216 100.081,316.549 101.5,317.5C 101.167,317.5 100.833,317.5 100.5,317.5C 89.1667,317.5 77.8333,317.5 66.5,317.5C 66.1667,317.5 65.8333,317.5 65.5,317.5C 66.9187,316.549 68.5853,316.216 70.5,316.5C 70.5,313.833 70.5,311.167 70.5,308.5C 71.8333,308.5 73.1667,308.5 74.5,308.5 Z"/></g>
<g><path style="opacity:1" fill="#f5b34a" d="M 206.5,308.5 C 212.5,308.5 218.5,308.5 224.5,308.5C 227.5,308.5 230.5,308.5 233.5,308.5C 233.5,311.5 233.5,314.5 233.5,317.5C 221.833,317.5 210.167,317.5 198.5,317.5C 200.948,316.527 203.615,316.194 206.5,316.5C 206.5,313.833 206.5,311.167 206.5,308.5 Z"/></g>
<g><path style="opacity:1" fill="#5064a9" d="M 198.5,317.5 C 210.167,317.5 221.833,317.5 233.5,317.5C 233.5,320.167 233.5,322.833 233.5,325.5C 221.833,325.5 210.167,325.5 198.5,325.5C 198.5,322.833 198.5,320.167 198.5,317.5 Z"/></g>
<g><path style="opacity:1" fill="#918c88" d="M 65.5,317.5 C 65.8333,317.5 66.1667,317.5 66.5,317.5C 66.5,320.167 66.5,322.833 66.5,325.5C 77.8333,325.5 89.1667,325.5 100.5,325.5C 100.5,322.833 100.5,320.167 100.5,317.5C 100.833,317.5 101.167,317.5 101.5,317.5C 101.5,320.5 101.5,323.5 101.5,326.5C 89.5,326.5 77.5,326.5 65.5,326.5C 65.5,323.5 65.5,320.5 65.5,317.5 Z"/></g>
<g><path style="opacity:1" fill="#5064aa" d="M 66.5,317.5 C 77.8333,317.5 89.1667,317.5 100.5,317.5C 100.5,320.167 100.5,322.833 100.5,325.5C 89.1667,325.5 77.8333,325.5 66.5,325.5C 66.5,322.833 66.5,320.167 66.5,317.5 Z"/></g>
<g><path style="opacity:1" fill="#999184" d="M 198.5,317.5 C 198.5,320.167 198.5,322.833 198.5,325.5C 210.167,325.5 221.833,325.5 233.5,325.5C 221.678,326.495 209.678,326.828 197.5,326.5C 197.19,323.287 197.523,320.287 198.5,317.5 Z"/></g>
<g><path style="opacity:0.996" fill="#c8414b" d="M -0.5,352.5 C 170.167,352.5 340.833,352.5 511.5,352.5C 511.5,374.5 511.5,396.5 511.5,418.5C 510.354,420.475 508.687,421.975 506.5,423C 339.167,423.667 171.833,423.667 4.5,423C 2.31305,421.975 0.646381,420.475 -0.5,418.5C -0.5,396.5 -0.5,374.5 -0.5,352.5 Z"/></g>
</svg>
