<?xml version="1.0" encoding="UTF-8"?>
<!DOCTYPE svg PUBLIC "-//W3C//DTD SVG 1.1//EN" "http://www.w3.org/Graphics/SVG/1.1/DTD/svg11.dtd">
<svg xmlns="http://www.w3.org/2000/svg" version="1.1" width="512px" height="512px" style="shape-rendering:geometricPrecision; text-rendering:geometricPrecision; image-rendering:optimizeQuality; fill-rule:evenodd; clip-rule:evenodd" xmlns:xlink="http://www.w3.org/1999/xlink">
<g><path style="opacity:1" fill="#42489b" d="M 230.5,87.5 C 233.028,88.5077 235.195,90.1743 237,92.5C 237.5,99.4921 237.666,106.492 237.5,113.5C 237.5,122.167 237.5,130.833 237.5,139.5C 237.5,148.167 237.5,156.833 237.5,165.5C 237.5,173.833 237.5,182.167 237.5,190.5C 237.5,199.167 237.5,207.833 237.5,216.5C 237.5,225.167 237.5,233.833 237.5,242.5C 237.666,249.508 237.5,256.508 237,263.5C 236.148,264.571 235.315,265.571 234.5,266.5C 233.005,266.989 231.671,267.655 230.5,268.5C 155.166,268.667 79.8326,268.5 4.5,268C 2.96252,266.293 1.29585,264.793 -0.5,263.5C -0.5,206.5 -0.5,149.5 -0.5,92.5C 0.646381,90.525 2.31305,89.025 4.5,88C 79.8326,87.5 155.166,87.3333 230.5,87.5 Z"/></g>
<g><path style="opacity:1" fill="#fe4c56" d="M 230.5,87.5 C 322.501,87.3333 414.501,87.5 506.5,88C 508.687,89.025 510.354,90.525 511.5,92.5C 511.5,99.5 511.5,106.5 511.5,113.5C 420.5,113.5 329.5,113.5 238.5,113.5C 238.167,113.5 237.833,113.5 237.5,113.5C 237.666,106.492 237.5,99.4921 237,92.5C 235.195,90.1743 233.028,88.5077 230.5,87.5 Z"/></g>
<g><path style="opacity:1" fill="#e5e5ed" d="M 22.5,107.5 C 23.3764,107.369 24.0431,107.702 24.5,108.5C 25.0736,110.059 25.7402,111.559 26.5,113C 34.1353,112.885 34.9686,114.718 29,118.5C 30.7089,125.512 28.8756,126.845 23.5,122.5C 18.1244,126.845 16.2911,125.512 18,118.5C 12.0314,114.718 12.8647,112.885 20.5,113C 21.464,111.275 22.1307,109.441 22.5,107.5 Z"/></g>
<g><path style="opacity:1" fill="#e7e7ee" d="M 70.5,107.5 C 72.539,108.911 73.539,110.911 73.5,113.5C 82.1523,112.859 82.819,114.859 75.5,119.5C 78.3194,126.067 76.8194,127.067 71,122.5C 66.2452,126.93 64.7452,125.93 66.5,119.5C 64.6397,118.061 62.973,116.395 61.5,114.5C 66.5858,114.573 69.5858,112.239 70.5,107.5 Z"/></g>
<g><path style="opacity:1" fill="#e7e7ee" d="M 117.5,107.5 C 118.376,107.369 119.043,107.702 119.5,108.5C 120.074,110.059 120.74,111.559 121.5,113C 129.135,112.885 129.969,114.718 124,118.5C 125.709,125.512 123.876,126.845 118.5,122.5C 116.929,124.415 114.929,125.415 112.5,125.5C 112.62,123.801 112.954,122.135 113.5,120.5C 112.058,118.153 110.724,115.82 109.5,113.5C 111.833,113.5 114.167,113.5 116.5,113.5C 116.833,111.5 117.167,109.5 117.5,107.5 Z"/></g>
<g><path style="opacity:1" fill="#e5e5ed" d="M 165.5,107.5 C 167.539,108.911 168.539,110.911 168.5,113.5C 175.418,112.656 176.585,114.323 172,118.5C 171.666,120.847 171.833,123.181 172.5,125.5C 170.071,125.415 168.071,124.415 166.5,122.5C 161.124,126.845 159.291,125.512 161,118.5C 154.925,114.805 155.759,112.805 163.5,112.5C 164.174,110.805 164.841,109.138 165.5,107.5 Z"/></g>
<g><path style="opacity:1" fill="#e7e7ee" d="M 213.5,107.5 C 215.043,108.736 216.043,110.402 216.5,112.5C 224.241,112.805 225.075,114.805 219,118.5C 219.351,120.886 219.185,123.219 218.5,125.5C 216.999,124.248 215.332,123.248 213.5,122.5C 211.929,124.415 209.929,125.415 207.5,125.5C 207.586,123.323 208.253,121.323 209.5,119.5C 202.181,114.859 202.848,112.859 211.5,113.5C 211.604,111.297 212.27,109.297 213.5,107.5 Z"/></g>
<g><path style="opacity:1" fill="#f5f4f4" d="M 238.5,113.5 C 329.5,113.5 420.5,113.5 511.5,113.5C 511.5,121.833 511.5,130.167 511.5,138.5C 420.5,138.5 329.5,138.5 238.5,138.5C 238.5,130.167 238.5,121.833 238.5,113.5 Z"/></g>
<g><path style="opacity:1" fill="#e6e6ed" d="M 46.5,122.5 C 48.539,123.911 49.539,125.911 49.5,128.5C 51.8333,128.5 54.1667,128.5 56.5,128.5C 55.2758,130.82 53.9425,133.153 52.5,135.5C 53.0463,137.135 53.3796,138.801 53.5,140.5C 51.0712,140.415 49.0712,139.415 47.5,137.5C 42.1244,141.845 40.2911,140.512 42,133.5C 36.0314,129.718 36.8647,127.885 44.5,128C 45.2444,126.185 45.9111,124.352 46.5,122.5 Z"/></g>
<g><path style="opacity:1" fill="#e7e8ee" d="M 94.5,122.5 C 96.0428,123.736 97.0428,125.402 97.5,127.5C 105.241,127.805 106.075,129.805 100,133.5C 100.351,135.886 100.185,138.219 99.5,140.5C 97.9991,139.248 96.3325,138.248 94.5,137.5C 88.9187,141.892 87.5854,140.892 90.5,134.5C 83.181,129.859 83.8477,127.859 92.5,128.5C 92.6036,126.297 93.2702,124.297 94.5,122.5 Z"/></g>
<g><path style="opacity:1" fill="#e5e5ed" d="M 141.5,122.5 C 142.376,122.369 143.043,122.702 143.5,123.5C 144.074,125.059 144.74,126.559 145.5,128C 153.135,127.885 153.969,129.718 148,133.5C 149.709,140.512 147.876,141.845 142.5,137.5C 137.124,141.845 135.291,140.512 137,133.5C 131.031,129.718 131.865,127.885 139.5,128C 140.464,126.275 141.131,124.441 141.5,122.5 Z"/></g>
<g><path style="opacity:1" fill="#e6e7ee" d="M 189.5,122.5 C 191.539,123.911 192.539,125.911 192.5,128.5C 201.152,127.859 201.819,129.859 194.5,134.5C 197.319,141.067 195.819,142.067 190,137.5C 185.245,141.93 183.745,140.93 185.5,134.5C 183.64,133.061 181.973,131.395 180.5,129.5C 185.586,129.573 188.586,127.239 189.5,122.5 Z"/></g>
<g><path style="opacity:1" fill="#eaebf0" d="M 70.5,138.5 C 72.6138,139.784 73.6138,141.784 73.5,144.5C 81.993,143.915 82.6597,145.749 75.5,150C 78.6592,157.005 77.1592,158.172 71,153.5C 64.994,158.314 63.494,157.314 66.5,150.5C 65.027,148.605 63.3603,146.939 61.5,145.5C 66.5858,145.573 69.5858,143.239 70.5,138.5 Z"/></g>
<g><path style="opacity:1" fill="#eaeaef" d="M 212.5,138.5 C 213.496,138.414 214.329,138.748 215,139.5C 215.402,140.872 215.902,142.205 216.5,143.5C 218.833,144.167 221.167,144.833 223.5,145.5C 221.64,146.939 219.973,148.605 218.5,150.5C 221.293,157.084 219.793,158.084 214,153.5C 207.841,158.172 206.341,157.005 209.5,150C 202.34,145.749 203.007,143.915 211.5,144.5C 211.833,142.5 212.167,140.5 212.5,138.5 Z"/></g>
<g><path style="opacity:1" fill="#f1dce0" d="M 237.5,113.5 C 237.833,113.5 238.167,113.5 238.5,113.5C 238.5,121.833 238.5,130.167 238.5,138.5C 329.5,138.5 420.5,138.5 511.5,138.5C 511.5,138.833 511.5,139.167 511.5,139.5C 420.5,139.5 329.5,139.5 238.5,139.5C 238.167,139.5 237.833,139.5 237.5,139.5C 237.5,130.833 237.5,122.167 237.5,113.5 Z"/></g>
<g><path style="opacity:1" fill="#ebebf0" d="M 22.5,138.5 C 23.3764,138.369 24.0431,138.702 24.5,139.5C 25.0736,141.059 25.7402,142.559 26.5,144C 33.0922,143.887 33.9256,145.72 29,149.5C 29.3513,151.886 29.1847,154.219 28.5,156.5C 26.9991,155.248 25.3325,154.248 23.5,153.5C 21.6675,154.248 20.0009,155.248 18.5,156.5C 17.394,154.716 17.394,152.882 18.5,151C 17.3746,149.037 16.0413,147.204 14.5,145.5C 19.6533,145.89 22.32,143.557 22.5,138.5 Z"/></g>
<g><path style="opacity:1" fill="#eaeaef" d="M 117.5,138.5 C 118.496,138.414 119.329,138.748 120,139.5C 120.402,140.872 120.902,142.205 121.5,143.5C 123.833,144.167 126.167,144.833 128.5,145.5C 126.5,146.833 124.833,148.5 123.5,150.5C 124.706,152.516 124.706,154.516 123.5,156.5C 120.258,152.673 116.925,152.673 113.5,156.5C 112.657,154.769 112.657,152.935 113.5,151C 112.487,148.976 111.154,147.143 109.5,145.5C 111.743,144.526 114.076,144.192 116.5,144.5C 116.517,142.435 116.85,140.435 117.5,138.5 Z"/></g>
<g><path style="opacity:1" fill="#eaeaef" d="M 165.5,138.5 C 167.969,139.607 168.969,141.607 168.5,144.5C 170.924,144.192 173.257,144.526 175.5,145.5C 173.846,147.143 172.513,148.976 171.5,151C 172.343,152.935 172.343,154.769 171.5,156.5C 169.571,155.62 167.737,154.62 166,153.5C 164.374,154.289 162.874,155.289 161.5,156.5C 160.294,154.516 160.294,152.516 161.5,150.5C 160.167,148.5 158.5,146.833 156.5,145.5C 161.586,145.573 164.586,143.239 165.5,138.5 Z"/></g>
<g><path style="opacity:1" fill="#fe4b54" d="M 238.5,139.5 C 329.5,139.5 420.5,139.5 511.5,139.5C 511.5,147.833 511.5,156.167 511.5,164.5C 420.5,164.5 329.5,164.5 238.5,164.5C 238.5,156.167 238.5,147.833 238.5,139.5 Z"/></g>
<g><path style="opacity:1" fill="#e9eaef" d="M 93.5,153.5 C 94.4959,153.414 95.3292,153.748 96,154.5C 96.4017,155.872 96.9017,157.205 97.5,158.5C 99.8333,159.167 102.167,159.833 104.5,160.5C 102.64,161.939 100.973,163.605 99.5,165.5C 102.293,172.084 100.793,173.084 95,168.5C 88.8408,173.172 87.3408,172.005 90.5,165C 83.3403,160.749 84.007,158.915 92.5,159.5C 92.8333,157.5 93.1667,155.5 93.5,153.5 Z"/></g>
<g><path style="opacity:1" fill="#e9eaef" d="M 189.5,153.5 C 191.614,154.784 192.614,156.784 192.5,159.5C 200.993,158.915 201.66,160.749 194.5,165C 197.659,172.005 196.159,173.172 190,168.5C 183.994,173.314 182.494,172.314 185.5,165.5C 184.027,163.605 182.36,161.939 180.5,160.5C 182.743,159.526 185.076,159.192 187.5,159.5C 187.604,157.297 188.27,155.297 189.5,153.5 Z"/></g>
<g><path style="opacity:1" fill="#eaeaef" d="M 46.5,153.5 C 48.9689,154.607 49.9689,156.607 49.5,159.5C 51.924,159.192 54.2573,159.526 56.5,160.5C 54.846,162.143 53.5127,163.976 52.5,166C 53.3431,167.935 53.3431,169.769 52.5,171.5C 50.5708,170.62 48.7374,169.62 47,168.5C 45.3745,169.289 43.8745,170.289 42.5,171.5C 41.2941,169.516 41.2941,167.516 42.5,165.5C 41.1667,163.5 39.5,161.833 37.5,160.5C 42.5858,160.573 45.5858,158.239 46.5,153.5 Z"/></g>
<g><path style="opacity:1" fill="#ebebf0" d="M 141.5,153.5 C 142.376,153.369 143.043,153.702 143.5,154.5C 144.074,156.059 144.74,157.559 145.5,159C 152.092,158.887 152.926,160.72 148,164.5C 148.351,166.886 148.185,169.219 147.5,171.5C 145.999,170.248 144.332,169.248 142.5,168.5C 140.668,169.248 139.001,170.248 137.5,171.5C 136.394,169.716 136.394,167.882 137.5,166C 136.375,164.037 135.041,162.204 133.5,160.5C 138.653,160.89 141.32,158.557 141.5,153.5 Z"/></g>
<g><path style="opacity:1" fill="#f67b85" d="M 237.5,139.5 C 237.833,139.5 238.167,139.5 238.5,139.5C 238.5,147.833 238.5,156.167 238.5,164.5C 329.5,164.5 420.5,164.5 511.5,164.5C 511.5,164.833 511.5,165.167 511.5,165.5C 420.167,165.5 328.833,165.5 237.5,165.5C 237.5,156.833 237.5,148.167 237.5,139.5 Z"/></g>
<g><path style="opacity:1" fill="#f4f4f4" d="M 237.5,165.5 C 328.833,165.5 420.167,165.5 511.5,165.5C 511.5,173.833 511.5,182.167 511.5,190.5C 420.167,190.5 328.833,190.5 237.5,190.5C 237.5,182.167 237.5,173.833 237.5,165.5 Z"/></g>
<g><path style="opacity:1" fill="#e9eaef" d="M 70.5,168.5 C 72.4484,170.32 73.4484,172.654 73.5,175.5C 75.924,175.192 78.2573,175.526 80.5,176.5C 78.6841,177.815 77.0175,179.315 75.5,181C 78.4287,188.655 76.9287,189.488 71,183.5C 65.0885,189.516 63.5885,188.683 66.5,181C 64.8551,179.355 63.1884,177.688 61.5,176C 63.8098,175.503 66.1432,175.337 68.5,175.5C 68.767,173.035 69.4336,170.701 70.5,168.5 Z"/></g>
<g><path style="opacity:1" fill="#eaeaef" d="M 117.5,169.5 C 118.496,169.414 119.329,169.748 120,170.5C 120.402,171.872 120.902,173.205 121.5,174.5C 123.766,175.314 126.1,175.814 128.5,176C 126.812,177.688 125.145,179.355 123.5,181C 124.459,183.12 124.626,185.287 124,187.5C 120.458,183.566 116.958,183.566 113.5,187.5C 112.969,184.901 112.802,182.235 113,179.5C 111.513,178.845 110.347,177.845 109.5,176.5C 111.743,175.526 114.076,175.192 116.5,175.5C 116.517,173.435 116.85,171.435 117.5,169.5 Z"/></g>
<g><path style="opacity:1" fill="#eaeaef" d="M 165.5,169.5 C 167.969,170.607 168.969,172.607 168.5,175.5C 170.924,175.192 173.257,175.526 175.5,176.5C 174.653,177.845 173.487,178.845 172,179.5C 172.198,182.235 172.031,184.901 171.5,187.5C 168.042,183.566 164.542,183.566 161,187.5C 160.374,185.287 160.541,183.12 161.5,181C 159.855,179.355 158.188,177.688 156.5,176C 161.659,176.543 164.659,174.377 165.5,169.5 Z"/></g>
<g><path style="opacity:1" fill="#eaeaef" d="M 213.5,168.5 C 215.448,170.32 216.448,172.654 216.5,175.5C 218.857,175.337 221.19,175.503 223.5,176C 221.812,177.688 220.145,179.355 218.5,181C 220.701,188.697 219.201,189.531 214,183.5C 208.071,189.488 206.571,188.655 209.5,181C 207.983,179.315 206.316,177.815 204.5,176.5C 206.743,175.526 209.076,175.192 211.5,175.5C 211.394,172.921 212.061,170.588 213.5,168.5 Z"/></g>
<g><path style="opacity:1" fill="#eaeaef" d="M 22.5,169.5 C 23.4959,169.414 24.3292,169.748 25,170.5C 25.2734,172.101 25.7734,173.601 26.5,175C 34.0766,174.558 34.9099,176.058 29,179.5C 29.1977,182.235 29.031,184.901 28.5,187.5C 25.0419,183.566 21.5419,183.566 18,187.5C 18,184.833 18,182.167 18,179.5C 12.0901,176.058 12.9234,174.558 20.5,175C 21.2444,173.185 21.9111,171.352 22.5,169.5 Z"/></g>
<g><path style="opacity:1" fill="#eaeaef" d="M 46.5,184.5 C 48.9689,185.607 49.9689,187.607 49.5,190.5C 51.924,190.192 54.2573,190.526 56.5,191.5C 55.6533,192.845 54.4866,193.845 53,194.5C 53.1977,197.235 53.031,199.901 52.5,202.5C 49.0419,198.566 45.5419,198.566 42,202.5C 41.3744,200.287 41.5411,198.12 42.5,196C 40.8551,194.355 39.1884,192.688 37.5,191C 42.6593,191.543 45.6593,189.377 46.5,184.5 Z"/></g>
<g><path style="opacity:1" fill="#eaeaef" d="M 94.5,183.5 C 96.4484,185.32 97.4484,187.654 97.5,190.5C 99.8568,190.337 102.19,190.503 104.5,191C 102.812,192.688 101.145,194.355 99.5,196C 102.475,203.676 100.975,204.509 95,198.5C 89.0713,204.488 87.5713,203.655 90.5,196C 88.9825,194.315 87.3159,192.815 85.5,191.5C 87.7427,190.526 90.076,190.192 92.5,190.5C 92.767,188.035 93.4336,185.701 94.5,183.5 Z"/></g>
<g><path style="opacity:1" fill="#e9e9ef" d="M 188.5,184.5 C 189.5,184.5 190.5,184.5 191.5,184.5C 191.833,186.5 192.167,188.5 192.5,190.5C 194.924,190.192 197.257,190.526 199.5,191.5C 197.684,192.815 196.017,194.315 194.5,196C 197.429,203.655 195.929,204.488 190,198.5C 184.071,204.488 182.571,203.655 185.5,196C 183.983,194.315 182.316,192.815 180.5,191.5C 182.743,190.526 185.076,190.192 187.5,190.5C 187.833,188.5 188.167,186.5 188.5,184.5 Z"/></g>
<g><path style="opacity:1" fill="#ebebf0" d="M 141.5,184.5 C 142.376,184.369 143.043,184.702 143.5,185.5C 144.074,187.059 144.74,188.559 145.5,190C 147.577,190.192 149.577,190.692 151.5,191.5C 150.653,192.845 149.487,193.845 148,194.5C 148.198,197.235 148.031,199.901 147.5,202.5C 144.042,198.566 140.542,198.566 137,202.5C 136.502,200.473 136.669,198.473 137.5,196.5C 136.046,194.543 134.38,192.71 132.5,191C 137.659,191.543 140.659,189.377 141.5,184.5 Z"/></g>
<g><path style="opacity:1" fill="#da7387" d="M 237.5,190.5 C 328.833,190.5 420.167,190.5 511.5,190.5C 511.5,190.833 511.5,191.167 511.5,191.5C 420.5,191.5 329.5,191.5 238.5,191.5C 238.5,199.833 238.5,208.167 238.5,216.5C 238.167,216.5 237.833,216.5 237.5,216.5C 237.5,207.833 237.5,199.167 237.5,190.5 Z"/></g>
<g><path style="opacity:1" fill="#fe4b54" d="M 511.5,191.5 C 511.5,199.833 511.5,208.167 511.5,216.5C 420.5,216.5 329.5,216.5 238.5,216.5C 238.5,208.167 238.5,199.833 238.5,191.5C 329.5,191.5 420.5,191.5 511.5,191.5 Z"/></g>
<g><path style="opacity:1" fill="#e5e6ed" d="M 22.5,199.5 C 23.3764,199.369 24.0431,199.702 24.5,200.5C 25.0736,202.059 25.7402,203.559 26.5,205C 34.1353,204.885 34.9686,206.718 29,210.5C 30.7089,217.512 28.8756,218.845 23.5,214.5C 18.1244,218.845 16.2911,217.512 18,210.5C 12.0314,206.718 12.8647,204.885 20.5,205C 21.464,203.275 22.1307,201.441 22.5,199.5 Z"/></g>
<g><path style="opacity:1" fill="#e7e7ee" d="M 70.5,199.5 C 72.539,200.911 73.539,202.911 73.5,205.5C 82.1523,204.859 82.819,206.859 75.5,211.5C 78.4146,217.892 77.0813,218.892 71.5,214.5C 69.6675,215.248 68.0009,216.248 66.5,217.5C 65.2941,215.516 65.2941,213.516 66.5,211.5C 64.6397,210.061 62.973,208.395 61.5,206.5C 66.5858,206.573 69.5858,204.239 70.5,199.5 Z"/></g>
<g><path style="opacity:1" fill="#e7e7ee" d="M 117.5,199.5 C 118.496,199.414 119.329,199.748 120,200.5C 120.273,202.101 120.773,203.601 121.5,205C 129.312,204.85 130.146,206.684 124,210.5C 125.709,217.512 123.876,218.845 118.5,214.5C 113.006,218.892 111.173,217.559 113,210.5C 108.415,206.323 109.582,204.656 116.5,205.5C 116.833,203.5 117.167,201.5 117.5,199.5 Z"/></g>
<g><path style="opacity:1" fill="#e6e6ed" d="M 165.5,199.5 C 167.614,200.784 168.614,202.784 168.5,205.5C 175.418,204.656 176.585,206.323 172,210.5C 171.666,212.847 171.833,215.181 172.5,217.5C 170.071,217.415 168.071,216.415 166.5,214.5C 164.668,215.248 163.001,216.248 161.5,217.5C 160.815,215.219 160.649,212.886 161,210.5C 154.925,206.805 155.759,204.805 163.5,204.5C 164.174,202.805 164.841,201.138 165.5,199.5 Z"/></g>
<g><path style="opacity:1" fill="#e7e7ee" d="M 213.5,199.5 C 215.043,200.736 216.043,202.402 216.5,204.5C 224.241,204.805 225.075,206.805 219,210.5C 219.351,212.886 219.185,215.219 218.5,217.5C 216.999,216.248 215.332,215.248 213.5,214.5C 211.929,216.415 209.929,217.415 207.5,217.5C 207.586,215.323 208.253,213.323 209.5,211.5C 202.181,206.859 202.848,204.859 211.5,205.5C 211.604,203.297 212.27,201.297 213.5,199.5 Z"/></g>
<g><path style="opacity:1" fill="#e5e5ed" d="M 46.5,214.5 C 48.6138,215.784 49.6138,217.784 49.5,220.5C 56.418,219.656 57.5847,221.323 53,225.5C 52.6664,227.847 52.833,230.181 53.5,232.5C 51.0712,232.415 49.0712,231.415 47.5,229.5C 42.1244,233.845 40.2911,232.512 42,225.5C 35.9254,221.805 36.7587,219.805 44.5,219.5C 45.1744,217.805 45.8411,216.138 46.5,214.5 Z"/></g>
<g><path style="opacity:1" fill="#e7e7ee" d="M 94.5,214.5 C 96.0428,215.736 97.0428,217.402 97.5,219.5C 105.241,219.805 106.075,221.805 100,225.5C 100.351,227.886 100.185,230.219 99.5,232.5C 97.9991,231.248 96.3325,230.248 94.5,229.5C 92.9288,231.415 90.9288,232.415 88.5,232.5C 88.5861,230.323 89.2528,228.323 90.5,226.5C 83.181,221.859 83.8477,219.859 92.5,220.5C 92.6036,218.297 93.2702,216.297 94.5,214.5 Z"/></g>
<g><path style="opacity:1" fill="#e5e5ed" d="M 141.5,214.5 C 142.376,214.369 143.043,214.702 143.5,215.5C 144.074,217.059 144.74,218.559 145.5,220C 153.135,219.885 153.969,221.718 148,225.5C 149.709,232.512 147.876,233.845 142.5,229.5C 137.124,233.845 135.291,232.512 137,225.5C 131.031,221.718 131.865,219.885 139.5,220C 140.464,218.275 141.131,216.441 141.5,214.5 Z"/></g>
<g><path style="opacity:1" fill="#e7e7ee" d="M 189.5,214.5 C 191.539,215.911 192.539,217.911 192.5,220.5C 201.152,219.859 201.819,221.859 194.5,226.5C 197.319,233.067 195.819,234.067 190,229.5C 185.245,233.93 183.745,232.93 185.5,226.5C 183.64,225.061 181.973,223.395 180.5,221.5C 185.586,221.573 188.586,219.239 189.5,214.5 Z"/></g>
<g><path style="opacity:1" fill="#f5f3f3" d="M 237.5,216.5 C 237.833,216.5 238.167,216.5 238.5,216.5C 329.5,216.5 420.5,216.5 511.5,216.5C 511.5,225.167 511.5,233.833 511.5,242.5C 420.167,242.5 328.833,242.5 237.5,242.5C 237.5,233.833 237.5,225.167 237.5,216.5 Z"/></g>
<g><path style="opacity:1" fill="#eaeaef" d="M 70.5,230.5 C 72.6138,231.784 73.6138,233.784 73.5,236.5C 81.993,235.915 82.6597,237.749 75.5,242C 78.6592,249.005 77.1592,250.172 71,245.5C 64.994,250.314 63.494,249.314 66.5,242.5C 65.027,240.605 63.3603,238.939 61.5,237.5C 63.7427,236.526 66.076,236.192 68.5,236.5C 68.6036,234.297 69.2702,232.297 70.5,230.5 Z"/></g>
<g><path style="opacity:1" fill="#ebebf0" d="M 212.5,230.5 C 213.496,230.414 214.329,230.748 215,231.5C 215.402,232.872 215.902,234.205 216.5,235.5C 218.833,236.167 221.167,236.833 223.5,237.5C 221.64,238.939 219.973,240.605 218.5,242.5C 221.506,249.314 220.006,250.314 214,245.5C 207.841,250.172 206.341,249.005 209.5,242C 202.34,237.749 203.007,235.915 211.5,236.5C 211.833,234.5 212.167,232.5 212.5,230.5 Z"/></g>
<g><path style="opacity:1" fill="#ececf0" d="M 22.5,230.5 C 23.3764,230.369 24.0431,230.702 24.5,231.5C 25.0736,233.059 25.7402,234.559 26.5,236C 28.5767,236.192 30.5767,236.692 32.5,237.5C 31.1199,239.174 29.7866,240.84 28.5,242.5C 29.5284,244.56 29.5284,246.56 28.5,248.5C 26.9991,247.248 25.3325,246.248 23.5,245.5C 21.6675,246.248 20.0009,247.248 18.5,248.5C 17.4716,246.56 17.4716,244.56 18.5,242.5C 17.2134,240.84 15.8801,239.174 14.5,237.5C 19.6533,237.89 22.32,235.557 22.5,230.5 Z"/></g>
<g><path style="opacity:1" fill="#eaeaef" d="M 117.5,230.5 C 118.496,230.414 119.329,230.748 120,231.5C 120.402,232.872 120.902,234.205 121.5,235.5C 123.833,236.167 126.167,236.833 128.5,237.5C 126.5,238.833 124.833,240.5 123.5,242.5C 124.706,244.516 124.706,246.516 123.5,248.5C 120.258,244.673 116.925,244.673 113.5,248.5C 112.472,246.56 112.472,244.56 113.5,242.5C 112.213,240.84 110.88,239.174 109.5,237.5C 111.743,236.526 114.076,236.192 116.5,236.5C 116.517,234.435 116.85,232.435 117.5,230.5 Z"/></g>
<g><path style="opacity:1" fill="#eaebef" d="M 165.5,230.5 C 167.969,231.607 168.969,233.607 168.5,236.5C 170.924,236.192 173.257,236.526 175.5,237.5C 173.846,239.143 172.513,240.976 171.5,243C 172.343,244.935 172.343,246.769 171.5,248.5C 168.075,244.673 164.742,244.673 161.5,248.5C 160.294,246.516 160.294,244.516 161.5,242.5C 160.167,240.5 158.5,238.833 156.5,237.5C 161.586,237.573 164.586,235.239 165.5,230.5 Z"/></g>
<g><path style="opacity:1" fill="#fe4b55" d="M 237.5,242.5 C 328.833,242.5 420.167,242.5 511.5,242.5C 511.5,250.833 511.5,259.167 511.5,267.5C 418.998,267.833 326.665,267.499 234.5,266.5C 235.315,265.571 236.148,264.571 237,263.5C 237.5,256.508 237.666,249.508 237.5,242.5 Z"/></g>
<g><path style="opacity:1" fill="#f5f3f3" d="M -0.5,263.5 C 1.29585,264.793 2.96252,266.293 4.5,268C 79.8326,268.5 155.166,268.667 230.5,268.5C 324.167,268.5 417.833,268.5 511.5,268.5C 511.5,277.167 511.5,285.833 511.5,294.5C 340.833,294.5 170.167,294.5 -0.5,294.5C -0.5,284.167 -0.5,273.833 -0.5,263.5 Z"/></g>
<g><path style="opacity:1" fill="#fd5963" d="M 234.5,266.5 C 326.665,267.499 418.998,267.833 511.5,267.5C 511.5,267.833 511.5,268.167 511.5,268.5C 417.833,268.5 324.167,268.5 230.5,268.5C 231.671,267.655 233.005,266.989 234.5,266.5 Z"/></g>
<g><path style="opacity:1" fill="#fe4b54" d="M -0.5,294.5 C 170.167,294.5 340.833,294.5 511.5,294.5C 511.5,302.833 511.5,311.167 511.5,319.5C 340.833,319.5 170.167,319.5 -0.5,319.5C -0.5,311.167 -0.5,302.833 -0.5,294.5 Z"/></g>
<g><path style="opacity:1" fill="#f5f1f1" d="M -0.5,319.5 C 170.167,319.5 340.833,319.5 511.5,319.5C 511.5,328.167 511.5,336.833 511.5,345.5C 340.833,345.5 170.167,345.5 -0.5,345.5C -0.5,336.833 -0.5,328.167 -0.5,319.5 Z"/></g>
<g><path style="opacity:1" fill="#ff4d56" d="M -0.5,345.5 C 170.167,345.5 340.833,345.5 511.5,345.5C 511.5,354.167 511.5,362.833 511.5,371.5C 340.833,371.5 170.167,371.5 -0.5,371.5C -0.5,362.833 -0.5,354.167 -0.5,345.5 Z"/></g>
<g><path style="opacity:1" fill="#f5f3f3" d="M -0.5,371.5 C 170.167,371.5 340.833,371.5 511.5,371.5C 511.5,380.167 511.5,388.833 511.5,397.5C 340.833,397.5 170.167,397.5 -0.5,397.5C -0.5,388.833 -0.5,380.167 -0.5,371.5 Z"/></g>
<g><path style="opacity:1" fill="#fe4c56" d="M -0.5,397.5 C 170.167,397.5 340.833,397.5 511.5,397.5C 511.5,404.5 511.5,411.5 511.5,418.5C 510.354,420.475 508.687,421.975 506.5,423C 339.167,423.667 171.833,423.667 4.5,423C 2.31305,421.975 0.646381,420.475 -0.5,418.5C -0.5,411.5 -0.5,404.5 -0.5,397.5 Z"/></g>
</svg>
