<svg version="1.2" xmlns="http://www.w3.org/2000/svg" viewBox="0 0 166 167" width="166" height="167">
	<title>thumbnail</title>
	<style>
		.s0 { opacity: .98;fill: #93cf89 } 
		.s1 { opacity: .96;fill: #305f33 } 
		.s2 { opacity: .96;fill: #315f33 } 
		.s3 { opacity: .97;fill: #93ce89 } 
	</style>
	<g>
		<path fill-rule="evenodd" class="s0" d="m64.5 0.5q2.95-0.36 5.5 1 3.88 7.01 6.5 14.5 8.87 1.21 17.5-0.5 1.8-7.15 4.5-14 6.59-1.14 13 1.5 2.09 1.43 2 4-1.63 8.18-2 16.5 2.98-0.18 5 2-4.48 5.23-9.5 10-3.36 5.43 2.5 8.5 5 0.5 10 1 10.26 3.77 7.5 14.5-8.45 12.25-19 2-2.1-4.3-3-9-4.74-5.14-8.5 0-1.07 5.8-3.5 11-13.2-5.26-23.5 4.5-2 1-4 0-1.43-1.08-0.5-2.5 10.65-8.59 7-22-8.34-15.78-25.5-10.5-8.54 5.28-12 14.5-8.38-8.35-13-19 1.86-6.61 8.5-9 6.65 4.7 13.5 9 6.91-2.46 13-6.5 1.2-7.74-1-15.5 0.81-1.87 2-3.5 3.76-1.05 7-2.5z"/>
	</g>
	<g>
		<path fill-rule="evenodd" class="s1" d="m136.5 19.5q7.99 1.74 11 9.5-3.81 7.82-10 14 3.82 5.39 6.5 11.5 2.47 2.29 6 2 6.73-1.25 13.5-0.5 3.45 5.83 2.5 12.5-7.5 4-15 8-0.75 8.49-0.5 17 8.19 1.15 15.5 5 0.46 6.18-2 12-1.77 1.78-4.5 2-7.97-1.33-16-2-0.1 3.29-2 6-6.53-6.28-13.5-12-3 2-5 5 2.87 14.81-11.5 18-14.1-3.19-9.5-17 4.88-5.79 12.5-6.5 4.18-3.88 1-8-5.96-1.54-12-2.5 5.34-14.36-4.5-26-1.17-2.73 1.5-4 14.39 16.62 30.5 2 11.8-21.99-11.5-31.5 8.61-7.28 17-14.5z"/>
	</g>
	<g>
		<path fill-rule="evenodd" class="s2" d="m53.5 39.5q17.46 1.4 11.5 18-5.22 4.88-12.5 5.5-3.8 4.12 0 8 5.04 1.16 10 2.5 0.28 7.39 0.5 15 1.9 6.55 6.5 11.5-1.25 1.52-1 3.5-1.58 0.22-3-0.5-5.43-8.17-15.5-8.5-21.6 4.61-16 26 4.4 9.34 14.5 12-8.77 8.76-19.5 15-6.75-2.75-9.5-9.5 3.89-7.77 10-14-3.31-6.37-7-12.5-9.44-0.49-19-0.5-2.16-5.02-3-10.5 0.04-2.29 2-3.5 6.5-2.75 13-5.5 1.49-8.94 1-18-8.2-1.15-15.5-5-0.16-7.19 3.5-13.5 8.34-0.65 16.5 1.5 1.25-0.5 2.5-1 0.68-3.1 3-5 6.04 5.8 12.5 11 2.97-0.74 5-3 0.28-7.13 2-14 3.25-3.48 7.5-5z"/>
	</g>
	<g>
		<path fill-rule="evenodd" class="s3" d="m98.5 98.5q2.89-0.4 5 1.5-15.95 13.38-3 29.5 14.59 10.7 27.5-2 2.5-4.5 5-9 6.64 8.78 14 17-0.24 8.54-8.5 12-6.7-3.96-13-8.5-8.33 0.53-14.5 6.5 0.5 8.97 0 18-4.75 2.19-10 3-2.57 0.09-4-2-2.67-7.09-6.5-13.5-8.49-0.75-17-0.5-1.15 8.19-5 15.5-6.76 0.44-13-2.5-1.55-8.81 1-17.5-1.75-3.39-5-5.5 3.98-4.73 8.5-9 3.44-5-1.5-8.5-7.89 0.11-15-3-3.58-3.46-3-8.5 1.01-12.79 14-10.5 7.83 4.4 8.5 13.5 4.08 3.85 8 0 1.73-5.41 2.5-11 14.22 5.31 25-5z"/>
	</g>
</svg>